<svg width="206" height="199" viewBox="0 0 206 199" fill="none" xmlns="http://www.w3.org/2000/svg">
<path d="M45.8522 54.636H0.78418V198.732H45.8522V54.636Z" fill="url(#paint0_linear)"/>
<path d="M88.2602 121.972C88.1842 122.2 88.1082 122.352 88.0322 122.58C87.6522 123.644 87.2722 124.784 86.8922 125.848L45.8522 54.7121H0.78418V66.7201L77.0122 198.732H84.3842H122.08C122.08 120.984 154.304 50.7601 205.984 0.600098C151.568 22.5641 108.552 66.7201 88.2602 121.972Z" fill="url(#paint1_linear)"/>
<path d="M193.216 54.7122H171.784C162.436 69.9882 154.456 86.2522 148.148 103.352V198.808H193.216V54.7122Z" fill="url(#paint2_linear)"/>
<defs>
<linearGradient id="paint0_linear" x1="23.3426" y1="54.6587" x2="23.3426" y2="198.749" gradientUnits="userSpaceOnUse">
<stop stop-color="#1633B2"/>
<stop offset="1" stop-color="#5394E7"/>
</linearGradient>
<linearGradient id="paint1_linear" x1="103.409" y1="54.6775" x2="103.409" y2="198.739" gradientUnits="userSpaceOnUse">
<stop offset="0.0053952" stop-color="#2850C2"/>
<stop offset="1" stop-color="#5598E9"/>
</linearGradient>
<linearGradient id="paint2_linear" x1="170.658" y1="54.6791" x2="170.658" y2="198.77" gradientUnits="userSpaceOnUse">
<stop stop-color="#3251CC"/>
<stop offset="1" stop-color="#5598E9"/>
</linearGradient>
</defs>
</svg>
